<?xml version="1.0" standalone="no"?>
<!DOCTYPE svg PUBLIC "-//W3C//DTD SVG 20010904//EN"
 "http://www.w3.org/TR/2001/REC-SVG-20010904/DTD/svg10.dtd">
<svg version="1.0" xmlns="http://www.w3.org/2000/svg"
 width="700.000000pt" height="700.000000pt" viewBox="0 0 700.000000 700.000000"
 preserveAspectRatio="xMidYMid meet">
<metadata>
Created by potrace 1.14, written by Peter Selinger 2001-2017
</metadata>
<g transform="translate(0.000000,700.000000) scale(0.100000,-0.100000)"
fill="#000000" stroke="none">
<path d="M691 4356 l-691 -691 0 -165 0 -164 687 -688 c379 -378 691 -688 696
-688 11 0 317 307 317 318 0 6 -273 283 -606 616 l-605 606 611 611 611 611
-83 82 c-46 45 -120 119 -164 163 l-81 81 -692 -692z"/>
<path d="M5450 4881 l-160 -160 611 -610 610 -611 -610 -611 -611 -610 160
-160 c87 -87 163 -159 167 -159 4 0 317 309 696 688 l687 687 0 165 0 165
-688 688 c-378 378 -691 687 -695 687 -4 0 -80 -72 -167 -159z"/>
<path d="M4065 5018 c-29 -10 -114 -77 -165 -129 -14 -14 -74 -70 -134 -125
-61 -54 -117 -106 -126 -114 -9 -8 -41 -37 -71 -64 -29 -27 -99 -90 -153 -140
-55 -50 -110 -100 -122 -111 -12 -11 -59 -54 -104 -95 -45 -41 -95 -86 -110
-100 -151 -137 -206 -187 -219 -200 -9 -8 -30 -28 -48 -44 l-31 -28 -254 193
c-292 223 -326 244 -380 229 -41 -12 -231 -177 -254 -222 -29 -55 -14 -108 44
-165 38 -36 181 -167 226 -206 11 -10 64 -59 118 -108 l97 -90 -36 -32 c-20
-18 -49 -43 -63 -57 -15 -14 -69 -63 -120 -110 -182 -165 -225 -204 -247 -230
-27 -29 -38 -78 -28 -117 7 -30 180 -203 229 -229 59 -32 110 -18 202 53 27
22 143 110 257 197 l209 158 26 -24 c14 -12 38 -34 53 -48 14 -14 46 -43 70
-65 43 -39 242 -219 265 -240 6 -5 56 -52 111 -103 55 -51 110 -100 120 -110
11 -9 62 -55 113 -102 51 -47 101 -92 110 -100 10 -8 62 -56 116 -106 55 -50
137 -125 183 -166 124 -113 176 -121 314 -54 40 19 133 63 207 99 368 176 409
198 439 234 17 21 34 55 38 76 12 61 8 2147 -5 2178 -23 56 -66 92 -177 145
-60 28 -204 98 -320 154 -284 138 -305 144 -380 118z m120 -1512 c0 -376 -2
-687 -5 -690 -3 -3 -181 128 -395 291 -215 162 -418 316 -452 342 -34 25 -62
48 -62 51 0 3 30 28 67 55 37 28 69 52 72 55 3 3 68 52 145 110 77 58 147 110
155 117 51 42 466 353 470 353 3 0 6 -308 5 -684z"/>
</g>
</svg>
